<svg xmlns="http://www.w3.org/2000/svg" width="30" height="30" viewBox="0 0 30 30">
  <g id="ic_KCC" transform="translate(-1108 -2306)">
    <circle id="타원_83" data-name="타원 83" cx="15" cy="15" r="15" transform="translate(1108 2306)" fill="#fff"/>
    <g id="그룹_296" data-name="그룹 296" transform="translate(1038.4 2119.128)">
      <path id="Layer" d="M207.074,217.912l-.675-1.142h0l-3.718-6.252h-.021l-.114-.218h-1.36l-5.286,9.295,5.369,9.243h1.36l.031-.052,4.434-7.592h-2.731l-2.357,4.2-3.365-5.816,3.292-5.816,2.4,4.133Z" transform="translate(-110.495 -17.565)" fill="#41e6af"/>
      <path id="Layer-2" data-name="Layer" d="M75.892,198.832l2.482-4.227-.831-1.34h0l-.582-.955-4.248,7.5h0l-.114.208.675,1.194H83.961l5.39-9.222L88.6,190.7l-7.477.021h-.114l-1.194-.021.633,1.194h0l.633,1.194,4.891-.021-3.365,5.764Z" transform="translate(0 0)" fill="#41e6af"/>
      <path id="Layer-3" data-name="Layer" d="M135.408,221.9a1.736,1.736,0,0,0-.592.1,2.989,2.989,0,0,0-.644.291,2.061,2.061,0,0,0-1.049,1.34.669.669,0,0,0,.135.54h0c.021.031.052.052.073.083a.137.137,0,0,0,.052.031l.031.031c.031.021.052.031.083.052h0a1.855,1.855,0,0,0,1.464-.114l.021-.021c.052-.021.1-.052.156-.073a.948.948,0,0,0,.135-.083c.052-.031.1-.073.156-.1s.083-.073.135-.1l.031-.021c.031-.031.073-.052.1-.083l.031-.031a.48.48,0,0,0,.073-.073.218.218,0,0,0,.052-.073c.021-.042.052-.052.073-.083l.031-.031c.021-.031.052-.052.073-.083l.031-.031c.021-.031.031-.052.052-.083v-.021l.021-.031a.7.7,0,0,0,.073-.114c.021-.031.031-.083.052-.114l.021-.021a.038.038,0,0,1,.021-.031h0c0-.021,0-.021.021-.031,0-.031.021-.052.021-.083s.021-.031.021-.052v-.332c0-.031-.021-.052-.031-.083a.364.364,0,0,0-.052-.083h0A.986.986,0,0,0,135.408,221.9Z" transform="translate(-54.23 -27.96)" fill="#41e6af"/>
      <path id="Layer-4" data-name="Layer" d="M141.032,232.187c0,.031-.021.052-.031.083h0c0,.021,0,.021-.021.031h0a.431.431,0,0,1-.073.135h0a2.9,2.9,0,0,1-.862.966c-.052.031-.1.073-.156.1a.57.57,0,0,1-.156.083h-.021a.139.139,0,0,1-.052.031c-.031.021-.052.031-.083.052h-.021c-.021,0-.031.021-.052.021a.2.2,0,0,1-.1.031l-.031.021h-.021c-.021,0-.031.021-.052.021a.4.4,0,0,1-.1.031l-.031.021h-.021a.4.4,0,0,1-.1.031c-.021,0-.031.021-.073.021h-.021a.472.472,0,0,0-.083.021.112.112,0,0,0-.073.021h-.021a.057.057,0,0,0-.052.021h-.052c-.052,0-.114.021-.166.021h-.187a.187.187,0,0,1-.1-.021.057.057,0,0,1-.052-.021c-.031,0-.073-.021-.1-.021s-.031-.021-.052-.021l.935,1.516,2-.021,1.039-1.838L141.043,232a.057.057,0,0,1-.021.052v.031a.2.2,0,0,0-.021.073C141.032,232.166,141.032,232.187,141.032,232.187Z" transform="translate(-58.608 -37.011)" fill="#41e6af"/>
      <path id="Layer-5" data-name="Layer" d="M254.107,282.34a1.709,1.709,0,0,1,.218.561,3.04,3.04,0,0,1,.083.7,2.106,2.106,0,0,1-.592,1.6.64.64,0,0,1-.54.166h0c-.031,0-.073-.021-.1-.021s-.031-.021-.052-.021-.031-.021-.052-.021c-.031-.021-.073-.031-.083-.052h0a1.809,1.809,0,0,1-.665-1.309v-.021c0-.052-.021-.1-.021-.166v-.343a.4.4,0,0,1,.021-.156v-.031c0-.031.021-.083.021-.114v-.052c0-.031.021-.073.021-.1s.021-.052.021-.083a.4.4,0,0,0,.031-.1c0-.021.021-.031.021-.052a.393.393,0,0,0,.031-.1l.021-.052a.138.138,0,0,0,.031-.083v-.021l.021-.031a.544.544,0,0,1,.073-.114c.021-.031.052-.073.073-.1l.021-.021.031-.031h0c.021-.021.021-.021.021-.031l.052-.052.031-.031.031-.031.052-.052.031-.021c.021-.021.052-.031.073-.052.021,0,.021,0,.031-.021a.038.038,0,0,0,.031-.021.02.02,0,0,0,.021-.021h.021c.031,0,.052-.021.083-.021h.1A.975.975,0,0,1,254.107,282.34Z" transform="translate(-161.038 -81.639)" fill="#41e6af"/>
      <path id="Layer-6" data-name="Layer" d="M230.259,282.2c-.021.021-.031.052-.052.073h0c0,.021-.021.021-.021.031h0c-.031.031-.052.083-.083.114h0a2.658,2.658,0,0,0-.374,1.236v.374h0v.073a.187.187,0,0,0,.021.1v.073c0,.031.021.073.021.1v.052a.057.057,0,0,0,.021.052c0,.031.021.073.021.1l.021.031v.021a.4.4,0,0,0,.031.1c0,.021.021.031.021.052h0v.021a.271.271,0,0,1,.031.083c0,.021.021.031.031.073V285c0,.021.021.031.021.052.021.021.021.031.021.031a1.138,1.138,0,0,0,.083.156l.021.021a.542.542,0,0,0,.083.114c0,.021.021.021.021.031l.021.021c.021.031.052.052.073.083s.021.031.031.031a.525.525,0,0,1,.073.083c.021.021.031.021.031.031h-1.786l-1.039-1.714,1.018-1.838H230.4l-.031.031-.021.021c-.042,0-.052.01-.093.052Z" transform="translate(-138.903 -81.908)" fill="#41e6af"/>
      <path id="Layer-7" data-name="Layer" d="M135.408,354.879a1.736,1.736,0,0,1-.592-.1,2.986,2.986,0,0,1-.644-.291,2.061,2.061,0,0,1-1.049-1.34.669.669,0,0,1,.135-.54h0c.021-.031.052-.052.073-.083a.138.138,0,0,1,.052-.031c.021-.01.021-.021.031-.031.031-.021.052-.031.083-.052h0a1.855,1.855,0,0,1,1.464.114l.021.021c.052.021.1.052.156.073a.944.944,0,0,1,.135.083c.052.031.1.073.156.1s.083.073.135.1l.031.021c.031.031.073.052.1.083l.031.031a.479.479,0,0,1,.073.073.217.217,0,0,1,.052.073c.021.042.052.052.073.083l.031.031c.021.031.052.052.073.083l.031.031c.021.031.031.052.052.083v.021l.021.031a.7.7,0,0,1,.073.114c.021.031.031.083.052.114l.021.021a.038.038,0,0,0,.021.031h0c0,.021,0,.021.021.031,0,.031.021.052.021.083s.021.031.021.052v.332c0,.031-.021.052-.031.083s-.031.052-.052.083h0A.939.939,0,0,1,135.408,354.879Z" transform="translate(-54.23 -144.821)" fill="#41e6af"/>
      <path id="Layer-8" data-name="Layer" d="M141.032,337.6c0-.031-.021-.052-.031-.083h0c0-.021,0-.021-.021-.031h0a.431.431,0,0,0-.073-.135h0a2.9,2.9,0,0,0-.862-.966c-.052-.031-.1-.073-.156-.1a.571.571,0,0,0-.156-.083h-.021a.139.139,0,0,0-.052-.031c-.031-.021-.052-.031-.083-.052h-.021c-.021,0-.031-.021-.052-.021a.2.2,0,0,0-.1-.031l-.031-.021h-.021c-.021,0-.031-.021-.052-.021a.4.4,0,0,0-.1-.031l-.031-.021h-.021a.394.394,0,0,0-.1-.031c-.021,0-.031-.021-.073-.021h-.021a.471.471,0,0,1-.083-.021.112.112,0,0,1-.073-.021h-.021a.057.057,0,0,1-.052-.021h-.052c-.052,0-.114-.021-.166-.021h-.187a.187.187,0,0,0-.1.021.057.057,0,0,0-.052.021c-.031,0-.073.021-.1.021s-.031.021-.052.021l.935-1.516,2,.021,1.039,1.838-.935,1.527a.057.057,0,0,0-.021-.052V337.7c0-.021-.021-.031-.021-.073C141.032,337.619,141.032,337.6,141.032,337.6Z" transform="translate(-58.608 -128.777)" fill="#41e6af"/>
      <path id="Layer-9" data-name="Layer" d="M85.976,315.363l-4.891-.021-.748,1.412-.509.966,1.309-.021v.021l7.477.021.748-1.288-5.4-9.232L73.275,307.2l-.675,1.194.135.218h-.021l4.248,7.477,1.412-2.3-2.482-4.216h6.719Z" transform="translate(0 -104.401)" fill="#41e6af"/>
    </g>
  </g>
</svg>
