<svg xmlns="http://www.w3.org/2000/svg" width="50" height="50" viewBox="0 0 50 50">
  <g id="Ic_solscan" transform="translate(-137.917 -250.37)">
    <circle id="타원_82" data-name="타원 82" cx="10.721" cy="10.721" r="10.721" transform="translate(152.195 264.649)" fill="#20e8c9"/>
    <path id="패스_683" data-name="패스 683" d="M168.1,290.83a16.309,16.309,0,1,1,7.849-5.662l6.19,6.19a25.111,25.111,0,0,0,5.012-22.29c-1.932-7.9-10.072-16.026-17.98-17.942a25.072,25.072,0,0,0-30.492,30.494c1.885,7.78,9.843,15.891,17.595,17.891a25.206,25.206,0,0,0,19.944-2.969l-4.948-4.948A3.1,3.1,0,0,0,168.1,290.83Z" transform="translate(0 0)" fill="#fff"/>
  </g>
</svg>
