<svg xmlns="http://www.w3.org/2000/svg" width="192.677" height="40" viewBox="0 0 192.677 40">
    <defs>
        <style>
            .cls-1{fill:#fff}
        </style>
    </defs>
    <g id="ic_defi_logo" transform="translate(-845.383 -666.042)">
        <g id="그룹_282" data-name="그룹 282" transform="translate(845.383 666.042)">
            <path id="패스_651" data-name="패스 651" class="cls-1" d="M878.519 698.778a1.616 1.616 0 1 0-2.22 2.349 16.263 16.263 0 0 1 5.143 11.93 16.413 16.413 0 1 1-32.826 0 16.263 16.263 0 0 1 5.142-11.93 1.616 1.616 0 1 0-2.22-2.349 19.465 19.465 0 0 0-6.154 14.279 19.645 19.645 0 0 0 39.29 0 19.465 19.465 0 0 0-6.155-14.279z" transform="translate(-845.383 -692.703)"/>
            <path id="패스_652" data-name="패스 652" class="cls-1" d="M984.338 683.216a1.616 1.616 0 0 0 1.616-1.616v-13.942a1.616 1.616 0 0 0-3.232 0V681.6a1.616 1.616 0 0 0 1.616 1.616z" transform="translate(-958.762 -666.042)"/>
            <path id="패스_653" data-name="패스 653" class="cls-1" d="M916.51 683.216a1.616 1.616 0 0 0 1.616-1.616v-13.942a1.616 1.616 0 0 0-3.232 0V681.6a1.616 1.616 0 0 0 1.616 1.616z" transform="translate(-902.767 -666.042)"/>
        </g>
        <g id="그룹_283" data-name="그룹 283" transform="translate(894.662 677.975)">
            <path id="패스_654" data-name="패스 654" class="cls-1" d="M1141.26 737.189h-5.042v13.937h-3.391v-13.937h-4.974v-2.747h13.406z" transform="translate(-1127.854 -734.442)"/>
            <path id="패스_655" data-name="패스 655" class="cls-1" d="M1217.361 739.381c.867-1.04 1.955-.937 3.267-.937q3.979 0 4.036 4.623v8.06h-3.264v-7.969a2.273 2.273 0 0 0-.452-1.554 1.939 1.939 0 0 0-1.5-.5 2.223 2.223 0 0 0-2.08 1.108v8.919h-3.267v-16.689h3.267z" transform="translate(-1199.049 -734.442)"/>
            <path id="패스_656" data-name="패스 656" class="cls-1" d="M1622.55 739.381a4.506 4.506 0 0 1 3.267-.937q3.979 0 4.036 4.623v7.833h-3.267v-7.743a2.274 2.274 0 0 0-.452-1.554 1.939 1.939 0 0 0-1.5-.5 2.223 2.223 0 0 0-2.08 1.108v8.689h-3.267v-16.458h3.267z" transform="translate(-1533.551 -734.442)"/>
            <path id="패스_657" data-name="패스 657" class="cls-1" d="M1292.345 770.062a6 6 0 0 1-4.38-1.65 5.866 5.866 0 0 1-1.69-4.4v-.312a7.39 7.39 0 0 1 .712-3.295 5.229 5.229 0 0 1 2.018-2.238 5.663 5.663 0 0 1 2.979-.786 5.076 5.076 0 0 1 3.951 1.582 6.431 6.431 0 0 1 1.441 4.487v1.334h-7.788a3.033 3.033 0 0 0 .955 1.922 2.887 2.887 0 0 0 2.018.724 3.526 3.526 0 0 0 2.95-1.368l1.605 1.8a4.9 4.9 0 0 1-1.989 1.622 6.529 6.529 0 0 1-2.782.578zm-.373-10.049a2.041 2.041 0 0 0-1.577.659 3.412 3.412 0 0 0-.774 1.885h4.544v-.261a2.433 2.433 0 0 0-.588-1.686 2.107 2.107 0 0 0-1.605-.597z" transform="translate(-1258.638 -753.378)"/>
            <path id="패스_658" data-name="패스 658" class="cls-1" d="M1407.249 751.126h-3.64l-2.713-6.251h-2.7v6.251h-3.396v-16.684h6.115a6.913 6.913 0 0 1 4.5 1.3 4.487 4.487 0 0 1 1.583 3.674 5.063 5.063 0 0 1-.729 2.809 3.354 3.354 0 0 1-2.421 1.4m-5.656-1.492h2.735a2.8 2.8 0 0 0 1.978-.65 2.323 2.323 0 0 0 .7-1.792 2.487 2.487 0 0 0-.661-1.831 2.748 2.748 0 0 0-2.029-.667h-2.715z" transform="translate(-1348.233 -734.442)"/>
            <path id="패스_659" data-name="패스 659" class="cls-1" d="M1481.8 770.062a6 6 0 0 1-4.38-1.65 5.866 5.866 0 0 1-1.69-4.4v-.312a7.389 7.389 0 0 1 .712-3.295 5.23 5.23 0 0 1 2.018-2.238 5.664 5.664 0 0 1 2.979-.786 5.076 5.076 0 0 1 3.951 1.582 6.431 6.431 0 0 1 1.441 4.487v1.334h-7.788a3.032 3.032 0 0 0 .957 1.916 2.887 2.887 0 0 0 2.018.724 3.526 3.526 0 0 0 2.95-1.368l1.605 1.8a4.9 4.9 0 0 1-1.99 1.622 6.529 6.529 0 0 1-2.783.584zm-.373-10.049a2.041 2.041 0 0 0-1.577.659 3.413 3.413 0 0 0-.774 1.885h4.544v-.261a2.433 2.433 0 0 0-.588-1.686 2.107 2.107 0 0 0-1.603-.597z" transform="translate(-1415.043 -753.378)"/>
            <path id="패스_660" data-name="패스 660" class="cls-1" d="M1552.665 767.428a2.142 2.142 0 0 0 1.469-.5 1.743 1.743 0 0 0 .588-1.323h3.063a4.193 4.193 0 0 1-.678 2.278 4.477 4.477 0 0 1-1.825 1.605 5.718 5.718 0 0 1-2.56.571 5.309 5.309 0 0 1-4.137-1.667 6.6 6.6 0 0 1-1.515-4.606v-.215a6.523 6.523 0 0 1 1.5-4.51 5.248 5.248 0 0 1 4.126-1.684 5.764 5.764 0 0 1 3.679 1.306c1.023.79 1.392 2.425 1.407 3.872h-3.063a3.392 3.392 0 0 0-.588-1.947 2.185 2.185 0 0 0-3.216.235 4.82 4.82 0 0 0-.582 2.7v.34a4.881 4.881 0 0 0 .577 2.717 1.992 1.992 0 0 0 1.755.828z" transform="translate(-1473.935 -753.378)"/>
            <path id="패스_661" data-name="패스 661" class="cls-1" d="M1697.9 769.836v-.922a3.825 3.825 0 0 1-3.086 1.148 4.342 4.342 0 0 1-2.978-1.04 3.345 3.345 0 0 1-1.181-2.622 3.457 3.457 0 0 1 1.441-2.984c.961-.693 2.349-.852 4.165-.859h1.5v-.893a1.412 1.412 0 0 0-.526-1.218 1.818 1.818 0 0 0-1.3-.41 1.8 1.8 0 0 0-1.246.339 1.366 1.366 0 0 0-.5.9h-3.267a3.281 3.281 0 0 1 .656-1.967 4.335 4.335 0 0 1 1.854-1.419 6.755 6.755 0 0 1 2.69-.514 5.337 5.337 0 0 1 3.589 1.136 3.974 3.974 0 0 1 1.328 3.193v8.127zm-2.374-2.272a2.814 2.814 0 0 0 1.334-.322 2.117 2.117 0 0 0 .9-.865v-2.1h-1.221q-2.453 0-2.611 1.7l-.011.192a1.306 1.306 0 0 0 .43 1.006 1.667 1.667 0 0 0 1.179.389z" transform="translate(-1592.471 -753.378)"/>
            <path id="패스_662" data-name="패스 662" class="cls-1" d="M1771.457 760.668a8.9 8.9 0 0 0-1.176-.091 2.392 2.392 0 0 0-2.43 1.255v8.229h-3.267v-12.682h3.267v1.277a2.551 2.551 0 0 1 2.634-1.277 3.425 3.425 0 0 1 1.017.147z" transform="translate(-1653.503 -753.378)"/>
            <path id="패스_663" data-name="패스 663" class="cls-1" d="M1810.264 763.63a7.168 7.168 0 0 1 1.339-4.533 4.341 4.341 0 0 1 3.612-1.718 3.45 3.45 0 0 1 2.95 1.368v-1.368h3.278v12.05a5.228 5.228 0 0 1-.729 2.792 4.682 4.682 0 0 1-2.052 1.809 7.213 7.213 0 0 1-3.1.622 6.707 6.707 0 0 1-2.622-.537 4.653 4.653 0 0 1-1.933-1.385l1.447-1.989a3.826 3.826 0 0 0 2.962 1.368 2.8 2.8 0 0 0 2.023-.7 2.608 2.608 0 0 0 .723-1.972v-.656a3.779 3.779 0 0 1-2.973 1.277 4.329 4.329 0 0 1-3.566-1.724 7.165 7.165 0 0 1-1.362-4.573zm3.267.243a4.465 4.465 0 0 0 .667 2.61 2.122 2.122 0 0 0 1.831.945 2.268 2.268 0 0 0 2.136-1.121v-5.151a2.263 2.263 0 0 0-2.114-1.121 2.134 2.134 0 0 0-1.848.962 5.028 5.028 0 0 0-.672 2.876z" transform="translate(-1691.214 -753.378)"/>
            <path id="패스_664" data-name="패스 664" class="cls-1" d="M1892.271 770.062a6 6 0 0 1-4.38-1.65 5.866 5.866 0 0 1-1.69-4.4v-.312a7.387 7.387 0 0 1 .712-3.295 5.229 5.229 0 0 1 2.018-2.238 5.663 5.663 0 0 1 2.979-.786 5.075 5.075 0 0 1 3.95 1.582 6.43 6.43 0 0 1 1.441 4.487v1.334h-7.788a3.032 3.032 0 0 0 .955 1.922 2.887 2.887 0 0 0 2.018.724 3.526 3.526 0 0 0 2.95-1.368l1.605 1.8a4.9 4.9 0 0 1-1.99 1.622 6.529 6.529 0 0 1-2.78.578zm-.373-10.049a2.041 2.041 0 0 0-1.577.659 3.412 3.412 0 0 0-.774 1.885h4.544v-.261a2.433 2.433 0 0 0-.588-1.686 2.107 2.107 0 0 0-1.603-.597z" transform="translate(-1753.903 -753.378)"/>
        </g>
    </g>
</svg>
