<svg xmlns="http://www.w3.org/2000/svg" width="50" height="50" viewBox="0 0 50 50">
    <g transform="translate(-560 -993)">
        <circle data-name="타원 81" cx="25" cy="25" r="25" transform="translate(560 993)" style="fill:#fff"/>
        <path data-name="패스 665" d="M594.999 1031h-19.5a6.507 6.507 0 0 1-6.5-6.5v-13a6.507 6.507 0 0 1 6.5-6.5h19.5a6.507 6.507 0 0 1 6.5 6.5v13a6.507 6.507 0 0 1-6.5 6.5zm-19.5-22.75a3.253 3.253 0 0 0-3.25 3.25v13a3.254 3.254 0 0 0 3.25 3.25h19.5a3.254 3.254 0 0 0 3.25-3.25v-13a3.253 3.253 0 0 0-3.25-3.25z"/>
        <path data-name="패스 666" d="M585.249 1021.25a1.625 1.625 0 0 1-.974-.325l-13-9.75a1.625 1.625 0 1 1 1.949-2.6l12.025 9.018 12.026-9.018a1.624 1.624 0 1 1 1.948 2.6l-13 9.75a1.627 1.627 0 0 1-.974.325z"/>
        <path data-name="패스 667" d="M598.247 1029.378a1.608 1.608 0 0 1-.972-.326l-6.5-4.875a1.624 1.624 0 1 1 1.948-2.6l6.5 4.875a1.625 1.625 0 0 1-.976 2.925z"/>
        <path data-name="패스 668" d="M572.251 1029.378a1.625 1.625 0 0 1-.976-2.925l6.5-4.875a1.625 1.625 0 1 1 1.949 2.6l-6.5 4.875a1.61 1.61 0 0 1-.973.325z"/>
    </g>
</svg>
