<svg xmlns="http://www.w3.org/2000/svg" xmlns:xlink="http://www.w3.org/1999/xlink" width="70" height="50" viewBox="0 0 70 40">
  <defs>
    <clipPath id="clip-path">
      <rect id="사각형_677" data-name="사각형 677" width="18.939" height="26.23" fill="none"/>
    </clipPath>
    <clipPath id="clip-path-3">
      <rect id="사각형_675" data-name="사각형 675" width="16.914" height="14.167" fill="none"/>
    </clipPath>
  </defs>
  <g id="ic_rcgpen" transform="translate(-588 -1793)">
    <g id="img_protocon" transform="translate(162 975)">
      <circle id="타원_52" data-name="타원 52" cx="20" cy="20" r="20" transform="translate(456 818)" fill="#fff"/>
      <g id="그룹_287" data-name="그룹 287" transform="translate(466.531 824.885)">
        <g id="그룹_286" data-name="그룹 286" clip-path="url(#clip-path)">
          <g id="그룹_285" data-name="그룹 285">
            <g id="그룹_284" data-name="그룹 284" clip-path="url(#clip-path)">
              <path id="패스_552" data-name="패스 552" d="M2.025,26.848V13.479l-.951-.137A1.073,1.073,0,0,0,0,14.415V36.584a1.073,1.073,0,0,0,1.073,1.073l12.251-2.824A1.073,1.073,0,0,0,14.4,33.759V25.594L3.1,27.921a1.073,1.073,0,0,1-1.073-1.073" transform="translate(0 -11.427)" fill="#4ae6e6"/>
              <g id="그룹_283" data-name="그룹 283" transform="translate(2.025)" style="mix-blend-mode: multiply;isolation: isolate">
                <g id="그룹_282" data-name="그룹 282">
                  <g id="그룹_281" data-name="그룹 281" clip-path="url(#clip-path-3)">
                    <path id="패스_553" data-name="패스 553" d="M29.948,2.281,15.18,0a1.073,1.073,0,0,0-1.073,1.073v.978l11.3,1.629A1.073,1.073,0,0,1,26.48,4.754v9.413l3.469-.714a1.073,1.073,0,0,0,1.073-1.073V3.354a1.073,1.073,0,0,0-1.073-1.073" transform="translate(-14.107)" fill="#97f2ef"/>
                  </g>
                </g>
              </g>
              <path id="패스_554" data-name="패스 554" d="M25.407,15.926,14.108,14.3V27.666a1.073,1.073,0,0,0,1.073,1.073l11.3-2.327V17a1.073,1.073,0,0,0-1.073-1.073" transform="translate(-12.083 -12.245)" fill="#21c8cc"/>
            </g>
          </g>
        </g>
      </g>
    </g>
    <g id="img_rcg_40px" transform="translate(132 975)">
      <circle id="타원_52-2" data-name="타원 52" cx="20" cy="20" r="20" transform="translate(456 818)" fill="#fff"/>
      <g id="그룹_220" data-name="그룹 220" transform="translate(464 826)">
        <path id="패스_466" data-name="패스 466" d="M-190.341,572.026a.97.97,0,0,0-1.371.039.97.97,0,0,0,.039,1.371,9.757,9.757,0,0,1,3.086,7.158,9.859,9.859,0,0,1-9.848,9.848,9.858,9.858,0,0,1-9.847-9.848,9.76,9.76,0,0,1,3.085-7.158.969.969,0,0,0,.039-1.371.97.97,0,0,0-1.371-.039,11.679,11.679,0,0,0-3.693,8.568,11.8,11.8,0,0,0,11.787,11.787,11.8,11.8,0,0,0,11.787-11.787A11.679,11.679,0,0,0-190.341,572.026Z" transform="translate(210.222 -568.381)"/>
        <path id="패스_467" data-name="패스 467" d="M-191.8,577.962a.97.97,0,0,0,.97-.97v-8.365a.97.97,0,0,0-.97-.97.97.97,0,0,0-.97.97v8.365A.97.97,0,0,0-191.8,577.962Z" transform="translate(207.146 -567.658)"/>
        <path id="패스_468" data-name="패스 468" d="M-200.419,577.962a.97.97,0,0,0,.97-.97v-8.365a.97.97,0,0,0-.97-.97.97.97,0,0,0-.97.97v8.365A.97.97,0,0,0-200.419,577.962Z" transform="translate(208.665 -567.658)"/>
      </g>
    </g>
  </g>
</svg>
