<svg xmlns="http://www.w3.org/2000/svg" width="242" height="29.407" viewBox="0 0 242 29.407">
    <defs>
        <linearGradient id="linear-gradient" x1=".03" y1="1.022" x2=".97" y2="-.022" gradientUnits="objectBoundingBox">
            <stop offset="0" stop-color="#9945ff"/>
            <stop offset=".14" stop-color="#8a53f4"/>
            <stop offset=".42" stop-color="#6377d6"/>
            <stop offset=".79" stop-color="#24b0a7"/>
            <stop offset=".99" stop-color="#00d18c"/>
            <stop offset="1" stop-color="#00d18c"/>
        </linearGradient>
        <style>
            .cls-1{fill:#fff}
        </style>
    </defs>
    <g id="ic_solana" transform="translate(-1.499)">
        <path id="패스_676" data-name="패스 676" class="cls-1" d="M141.017 11.763h-17.685V5.882H145.6V0h-22.3a5.841 5.841 0 0 0-5.841 5.841V11.8a5.841 5.841 0 0 0 5.841 5.841h17.685v5.882h-23.114v5.882h23.146a5.841 5.841 0 0 0 5.841-5.841V17.6a5.841 5.841 0 0 0-5.841-5.837z" transform="translate(-68.592)"/>
        <path id="패스_677" data-name="패스 677" class="cls-1" d="M224.837 0h-17.75a5.837 5.837 0 0 0-5.837 5.841v17.726a5.837 5.837 0 0 0 5.837 5.841h17.751a5.841 5.841 0 0 0 5.841-5.841V5.841A5.841 5.841 0 0 0 224.837 0zm-.037 23.526h-17.648V5.882H224.8z" transform="translate(-118.165)"/>
        <path id="패스_678" data-name="패스 678" class="cls-1" d="M377.57 0h-17.31a5.841 5.841 0 0 0-5.841 5.841v23.567h5.881v-9.664h17.228v9.664h5.882V5.841A5.837 5.837 0 0 0 377.57 0zm-.041 13.862H360.3v-7.98h17.228z" transform="translate(-208.774)"/>
        <path id="패스_679" data-name="패스 679" class="cls-1" d="M546.158 0h-17.305A5.841 5.841 0 0 0 523 5.841v23.567h5.881v-9.664h17.236v9.664H552V5.841A5.841 5.841 0 0 0 546.158 0zm-.041 13.862h-17.223V5.881h17.224z" transform="translate(-308.5)"/>
        <path id="패스_680" data-name="패스 680" class="cls-1" d="M461.736 23.526h-2.353l-8.43-21.075A3.892 3.892 0 0 0 447.339 0H442.1a3.893 3.893 0 0 0-3.892 3.892v25.516h5.882V5.882h2.353l8.426 21.075a3.884 3.884 0 0 0 3.611 2.451h5.236a3.892 3.892 0 0 0 3.892-3.892V0h-5.882z" transform="translate(-258.341)"/>
        <path id="패스_681" data-name="패스 681" class="cls-1" d="M291.941 0h-5.881v23.567a5.841 5.841 0 0 0 5.841 5.841h17.685v-5.882h-17.645z" transform="translate(-168.335)"/>
        <path id="패스_682" data-name="패스 682" d="M7.112 22.423a1.144 1.144 0 0 1 .817-.368h25.666A.564.564 0 0 1 34 23l-5.44 6.041a1.144 1.144 0 0 1-.817.368H2.063a.564.564 0 0 1-.408-.943zm26.916-5.007a.564.564 0 0 1-.408.943l-25.674.02a1.144 1.144 0 0 1-.817-.368l-5.481-6.02a.564.564 0 0 1 .408-.943l25.674-.02a1.144 1.144 0 0 1 .817.368zM7.112.368A1.144 1.144 0 0 1 7.928 0l25.683.02a.564.564 0 0 1 .408.943l-5.457 6.02a1.144 1.144 0 0 1-.817.368H2.063a.564.564 0 0 1-.408-.943z" style="fill-rule:evenodd;fill:url(#linear-gradient)"/>
    </g>
</svg>
