<svg xmlns="http://www.w3.org/2000/svg" xmlns:xlink="http://www.w3.org/1999/xlink" width="100" height="80" viewBox="0 0 100 80">
  <defs>
    <clipPath id="clip-path">
      <rect id="사각형_684" data-name="사각형 684" width="100" height="80" transform="translate(442 756)" fill="#fff"/>
    </clipPath>
  </defs>
  <g id="마스크_그룹_11" data-name="마스크 그룹 11" transform="translate(-442 -756)" clip-path="url(#clip-path)">
    <g id="그룹_297" data-name="그룹 297" transform="translate(377.4 565.3)" opacity="0.3">
      <path id="Layer" d="M235.386,237.2,233,233.162h0l-13.138-22.092h-.073l-.4-.771h-4.807L195.9,243.144,214.872,275.8h4.807l.11-.183L235.46,248.8h-9.651l-8.33,14.826-11.89-20.55,11.633-20.55,8.477,14.605Z" transform="translate(-78.052 -12.407)" fill="#41e6af"/>
      <path id="Layer-2" data-name="Layer" d="M84.233,219.434,93,204.5l-2.936-4.734h0l-2.055-3.376L73,222.883h0l-.4.734,2.385,4.22h37.761l19.046-32.587-2.642-4.55-26.422.073h-.4L98.1,190.7l2.239,4.22h0l2.239,4.22,17.284-.073-11.89,20.367Z" transform="translate(0 0)" fill="#41e6af"/>
      <path id="Layer-3" data-name="Layer" d="M141.219,221.9a6.136,6.136,0,0,0-2.092.367,10.562,10.562,0,0,0-2.275,1.028c-2.055,1.248-3.486,3.046-3.706,4.734a2.363,2.363,0,0,0,.477,1.908h0c.073.11.183.183.257.294a.489.489,0,0,0,.184.11l.11.11c.11.073.183.11.294.183h0a6.556,6.556,0,0,0,5.174-.4l.073-.073c.183-.073.367-.183.55-.257a3.353,3.353,0,0,0,.477-.294c.184-.11.367-.257.55-.367s.294-.257.477-.367l.11-.073c.11-.11.257-.184.367-.294l.11-.11a1.7,1.7,0,0,0,.257-.257.771.771,0,0,0,.183-.257c.073-.147.183-.183.257-.294l.11-.11c.073-.11.183-.184.257-.294l.11-.11c.073-.11.11-.183.183-.294v-.073l.073-.11a2.469,2.469,0,0,0,.257-.4c.073-.11.11-.294.183-.4l.073-.073a.136.136,0,0,1,.073-.11h0c0-.073,0-.073.073-.11,0-.11.073-.183.073-.294s.073-.11.073-.184v-1.174c0-.11-.073-.183-.11-.294a1.288,1.288,0,0,0-.183-.294h0A3.484,3.484,0,0,0,141.219,221.9Z" transform="translate(-38.307 -19.75)" fill="#41e6af"/>
      <path id="Layer-4" data-name="Layer" d="M148.716,232.661c0,.11-.073.183-.11.294h0c0,.073,0,.073-.073.11h0a1.523,1.523,0,0,1-.257.477h0a10.25,10.25,0,0,1-3.046,3.413c-.183.11-.367.257-.55.367a2.013,2.013,0,0,1-.55.294h-.073a.489.489,0,0,1-.183.11c-.11.073-.183.11-.294.184H143.5c-.073,0-.11.073-.183.073a.708.708,0,0,1-.367.11l-.11.073h-.073c-.073,0-.11.073-.183.073a1.4,1.4,0,0,1-.367.11l-.11.073h-.073a1.4,1.4,0,0,1-.367.11c-.073,0-.11.073-.257.073h-.073a1.665,1.665,0,0,0-.294.073.4.4,0,0,0-.257.073h-.073a.2.2,0,0,0-.183.073h-.183c-.183,0-.4.073-.587.073H139.1a.662.662,0,0,1-.367-.073.2.2,0,0,1-.183-.073c-.11,0-.257-.073-.367-.073-.073,0-.11-.073-.183-.073l3.3,5.358,7.083-.073,3.67-6.5-3.3-5.395a.2.2,0,0,1-.073.184v.11a.724.724,0,0,0-.073.257C148.716,232.587,148.716,232.661,148.716,232.661Z" transform="translate(-41.4 -26.144)" fill="#41e6af"/>
      <path id="Layer-5" data-name="Layer" d="M258.685,283.708a6.04,6.04,0,0,1,.771,1.982,10.739,10.739,0,0,1,.294,2.459c0,2.385-.771,4.55-2.092,5.651a2.263,2.263,0,0,1-1.908.587h0c-.11,0-.257-.073-.367-.073-.073,0-.11-.073-.184-.073s-.11-.073-.183-.073c-.11-.073-.257-.11-.294-.184h0a6.393,6.393,0,0,1-2.349-4.624v-.073c0-.184-.073-.367-.073-.587v-1.211a1.426,1.426,0,0,1,.073-.55v-.11c0-.11.073-.294.073-.4v-.183c0-.11.073-.257.073-.367s.073-.184.073-.294a1.4,1.4,0,0,0,.11-.367c0-.073.073-.11.073-.184a1.4,1.4,0,0,0,.11-.367l.073-.184a.488.488,0,0,0,.11-.294v-.073l.073-.11a1.926,1.926,0,0,1,.257-.4c.073-.11.183-.257.257-.367l.073-.073.11-.11h0c.073-.073.073-.073.073-.11l.183-.183.11-.11.11-.11.184-.184.11-.073c.073-.073.184-.11.257-.184.073,0,.073,0,.11-.073a.136.136,0,0,0,.11-.073.072.072,0,0,0,.073-.073h.073c.11,0,.184-.073.294-.073h.367A3.445,3.445,0,0,1,258.685,283.708Z" transform="translate(-113.755 -57.669)" fill="#41e6af"/>
      <path id="Layer-6" data-name="Layer" d="M236.994,282.467c-.073.073-.11.184-.183.257h0c0,.073-.073.073-.073.11h0c-.11.11-.184.294-.294.4h0a9.394,9.394,0,0,0-1.321,4.367v1.321h0v.257a.661.661,0,0,0,.073.367v.257c0,.11.073.257.073.367v.183a.2.2,0,0,0,.073.184c0,.11.073.257.073.367l.073.11v.073a1.4,1.4,0,0,0,.11.367c0,.073.073.11.073.183h0v.073a.959.959,0,0,1,.11.294c0,.073.073.11.11.257v.073c0,.073.073.11.073.184.073.073.073.11.073.11a4.006,4.006,0,0,0,.294.55l.073.073a1.919,1.919,0,0,0,.294.4c0,.073.073.073.073.11l.073.073c.073.11.183.184.257.294.073.073.073.11.11.11a1.837,1.837,0,0,1,.257.294c.073.073.11.073.11.11H231.27L227.6,288.6l3.6-6.5h6.312l-.11.11-.073.073c-.147,0-.183.037-.33.183Z" transform="translate(-98.119 -57.859)" fill="#41e6af"/>
      <path id="Layer-7" data-name="Layer" d="M141.219,361.4a6.137,6.137,0,0,1-2.092-.367,10.56,10.56,0,0,1-2.275-1.028c-2.055-1.248-3.486-3.046-3.706-4.734a2.363,2.363,0,0,1,.477-1.908h0c.073-.11.183-.183.257-.294a.49.49,0,0,1,.184-.11c.073-.037.073-.073.11-.11.11-.073.183-.11.294-.183h0a6.556,6.556,0,0,1,5.174.4l.073.073c.183.073.367.184.55.257a3.352,3.352,0,0,1,.477.294c.184.11.367.257.55.367s.294.257.477.367l.11.073c.11.11.257.184.367.294l.11.11a1.7,1.7,0,0,1,.257.257.772.772,0,0,1,.183.257c.073.147.183.183.257.294l.11.11c.073.11.183.184.257.294l.11.11c.073.11.11.183.183.294v.073l.073.11a2.469,2.469,0,0,1,.257.4c.073.11.11.294.183.4l.073.073a.136.136,0,0,0,.073.11h0c0,.073,0,.073.073.11,0,.11.073.183.073.294s.073.11.073.183v1.174c0,.11-.073.183-.11.294-.073.11-.11.184-.183.294h0A3.319,3.319,0,0,1,141.219,361.4Z" transform="translate(-38.307 -102.3)" fill="#41e6af"/>
      <path id="Layer-8" data-name="Layer" d="M148.716,345.7c0-.11-.073-.183-.11-.294h0c0-.073,0-.073-.073-.11h0a1.523,1.523,0,0,0-.257-.477h0a10.25,10.25,0,0,0-3.046-3.413c-.183-.11-.367-.257-.55-.367a2.009,2.009,0,0,0-.55-.294h-.073a.488.488,0,0,0-.183-.11c-.11-.073-.183-.11-.294-.183H143.5c-.073,0-.11-.073-.183-.073a.708.708,0,0,0-.367-.11l-.11-.073h-.073c-.073,0-.11-.073-.183-.073a1.4,1.4,0,0,0-.367-.11l-.11-.073h-.073a1.4,1.4,0,0,0-.367-.11c-.073,0-.11-.073-.257-.073h-.073a1.664,1.664,0,0,1-.294-.073.4.4,0,0,1-.257-.073h-.073a.2.2,0,0,1-.183-.073h-.183c-.183,0-.4-.073-.587-.073H139.1a.662.662,0,0,0-.367.073.2.2,0,0,0-.183.073c-.11,0-.257.073-.367.073-.073,0-.11.073-.183.073l3.3-5.358,7.083.073,3.67,6.5-3.3,5.394a.2.2,0,0,0-.073-.183v-.11c0-.073-.073-.11-.073-.257C148.716,345.776,148.716,345.7,148.716,345.7Z" transform="translate(-41.4 -90.966)" fill="#41e6af"/>
      <path id="Layer-9" data-name="Layer" d="M119.866,336.044l-17.284-.073-2.642,4.991-1.8,3.413,4.624-.073v.073l26.422.073,2.642-4.55-19.083-32.624L74.985,307.2,72.6,311.42l.477.771H73l15.009,26.422L93,330.5l-8.771-14.9h23.743Z" transform="translate(0 -73.748)" fill="#41e6af"/>
    </g>
  </g>
</svg>
