<svg xmlns="http://www.w3.org/2000/svg" width="50" height="50">
    <g transform="translate(-456 -818)">
        <circle data-name="타원 52" cx="25" cy="25" r="25" transform="translate(456 818)" style="fill:#fff"/>
        <g data-name="그룹 220">
            <path data-name="패스 466" d="M490.852 832.557a1.213 1.213 0 0 0-1.713.048 1.213 1.213 0 0 0 .048 1.713 12.2 12.2 0 0 1 3.857 8.948 12.324 12.324 0 0 1-12.31 12.31 12.323 12.323 0 0 1-12.312-12.312 12.2 12.2 0 0 1 3.856-8.948 1.211 1.211 0 0 0 .048-1.713 1.213 1.213 0 0 0-1.713-.048 14.6 14.6 0 0 0-4.616 10.71 14.75 14.75 0 0 0 14.734 14.734 14.75 14.75 0 0 0 14.737-14.735 14.6 14.6 0 0 0-4.616-10.707z"/>
            <path data-name="패스 467" d="M485.182 840.88a1.212 1.212 0 0 0 1.212-1.212v-10.456a1.212 1.212 0 0 0-1.212-1.212 1.212 1.212 0 0 0-1.212 1.212v10.456a1.212 1.212 0 0 0 1.212 1.212z"/>
            <path data-name="패스 468" d="M476.307 840.88a1.212 1.212 0 0 0 1.212-1.212v-10.456a1.212 1.212 0 0 0-1.212-1.212 1.212 1.212 0 0 0-1.212 1.212v10.456a1.212 1.212 0 0 0 1.212 1.212z"/>
        </g>
    </g>
</svg>
