<svg xmlns="http://www.w3.org/2000/svg" width="70" height="40" viewBox="0 0 70 40">
    <defs>
        <style>
            .cls-2{fill:#fff}
        </style>
    </defs>
    <g id="img_rcgusdc_40px" transform="translate(-456 -818)">
        <g id="그룹_266" data-name="그룹 266" transform="translate(486 818)">
            <circle id="타원_77" data-name="타원 77" cx="20" cy="20" r="20" style="fill:#2775ca"/>
            <path id="패스_585" data-name="패스 585" class="cls-2" d="M14.333 31.517c0 .5-.333.667-.833.667a15.033 15.033 0 0 1 0-28.667c.5-.167.833.167.833.667v1.167a.917.917 0 0 1-.5.833 12.417 12.417 0 0 0 0 23.333.917.917 0 0 1 .5.833z" transform="translate(2 2.316)"/>
            <path id="패스_586" data-name="패스 586" class="cls-2" d="M15.667 25.6a.717.717 0 0 1-.667.667h-1.333A.717.717 0 0 1 13 25.6v-2a4.819 4.819 0 0 1-4.5-4c0-.333.167-.667.5-.667h1.5c.333 0 .5.167.667.5.333 1.167 1 2.167 3.167 2.167 1.667 0 2.833-.833 2.833-2.167s-.667-1.833-3-2.167c-3.5-.5-5.167-1.5-5.167-4.333a4.316 4.316 0 0 1 4-4.167v-2a.717.717 0 0 1 .667-.667H15a.717.717 0 0 1 .667.667v2a4.084 4.084 0 0 1 3.666 3.334c0 .333-.167.667-.5.667H17.5c-.333 0-.5-.167-.667-.5C16.5 11.1 15.667 10.6 14.167 10.6c-1.667 0-2.5.833-2.5 2s.5 1.833 3 2.167c3.5.5 5.167 1.5 5.167 4.333a4.771 4.771 0 0 1-4.167 4.5z" transform="translate(5.667 4.067)"/>
            <path id="패스_587" data-name="패스 587" class="cls-2" d="M15.033 32.167c-.5.167-.833-.167-.833-.667v-1.167a.917.917 0 0 1 .5-.833 12.417 12.417 0 0 0 0-23.333.917.917 0 0 1-.5-.833V4.167c0-.5.333-.667.833-.667a15.274 15.274 0 0 1 10.5 14.333 15.059 15.059 0 0 1-10.5 14.334z" transform="translate(9.467 2.333)"/>
        </g>
        <circle id="타원_52" data-name="타원 52" class="cls-2" cx="20" cy="20" r="20" transform="translate(456 818)"/>
        <g id="그룹_220" data-name="그룹 220" transform="translate(464 826)">
            <path id="패스_466" data-name="패스 466" d="M-190.341 572.026a.97.97 0 0 0-1.371.039.97.97 0 0 0 .039 1.371 9.757 9.757 0 0 1 3.086 7.158 9.859 9.859 0 0 1-9.848 9.848 9.858 9.858 0 0 1-9.847-9.848 9.76 9.76 0 0 1 3.085-7.158.969.969 0 0 0 .039-1.371.97.97 0 0 0-1.371-.039 11.679 11.679 0 0 0-3.693 8.568 11.8 11.8 0 0 0 11.787 11.787 11.8 11.8 0 0 0 11.787-11.787 11.679 11.679 0 0 0-3.693-8.568z" transform="translate(210.222 -568.381)"/>
            <path id="패스_467" data-name="패스 467" d="M-191.8 577.962a.97.97 0 0 0 .97-.97v-8.365a.97.97 0 0 0-.97-.97.97.97 0 0 0-.97.97v8.365a.97.97 0 0 0 .97.97z" transform="translate(207.146 -567.658)"/>
            <path id="패스_468" data-name="패스 468" d="M-200.419 577.962a.97.97 0 0 0 .97-.97v-8.365a.97.97 0 0 0-.97-.97.97.97 0 0 0-.97.97v8.365a.97.97 0 0 0 .97.97z" transform="translate(208.665 -567.658)"/>
        </g>
    </g>
</svg>
