<svg xmlns="http://www.w3.org/2000/svg" xmlns:xlink="http://www.w3.org/1999/xlink" width="80" height="80" viewBox="0 0 80 80">
    <defs>
        <linearGradient id="a" x1=".907" y1="1.512" x2=".355" y2="-3.91" gradientUnits="objectBoundingBox">
            <stop offset="0" stop-color="#00ffa3"/>
            <stop offset="1" stop-color="#dc1fff"/>
        </linearGradient>
        <linearGradient id="b" x1=".666" y1="5.175" x2=".114" y2="-.247" xlink:href="#a"/>
        <linearGradient id="c" x1=".786" y1="3.356" x2=".234" y2="-2.067" xlink:href="#a"/>
    </defs>
    <circle data-name="타원 52" cx="35.556" cy="35.556" style="fill:#fff" r="35.556"/>
    <g data-name="그룹 220">
        <path data-name="패스 466" d="M49.788 20.795a1.733 1.733 0 0 0-2.448.069 1.733 1.733 0 0 0 .069 2.448 17.424 17.424 0 0 1 5.51 12.783 17.606 17.606 0 0 1-17.586 17.586 17.6 17.6 0 0 1-17.584-17.586 17.428 17.428 0 0 1 5.509-12.783 1.73 1.73 0 0 0 .069-2.448 1.733 1.733 0 0 0-2.448-.069 20.855 20.855 0 0 0-6.594 15.3 21.072 21.072 0 0 0 21.048 21.049 21.072 21.072 0 0 0 21.048-21.049 20.855 20.855 0 0 0-6.593-15.3z"/>
        <path data-name="패스 467" d="M41.689 32.687a1.731 1.731 0 0 0 1.731-1.731V16.017a1.731 1.731 0 0 0-1.731-1.731 1.732 1.732 0 0 0-1.731 1.731v14.938a1.731 1.731 0 0 0 1.731 1.732z"/>
        <path data-name="패스 468" d="M29.01 32.687a1.731 1.731 0 0 0 1.731-1.731V16.017a1.731 1.731 0 0 0-1.731-1.731 1.731 1.731 0 0 0-1.731 1.731v14.938a1.731 1.731 0 0 0 1.731 1.732z"/>
    </g>
    <g data-name="타원 56" transform="translate(37.333 37.333)" style="stroke:#1c1e35;fill:#fff">
        <circle cx="21.333" cy="21.333" r="21.333" style="stroke:none"/>
        <circle cx="21.333" cy="21.333" r="20.833" style="fill:none"/>
    </g>
    <path data-name="패스 670" d="M4.86 234.387a.983.983 0 0 1 .695-.287h23.968a.491.491 0 0 1 .347.838l-4.735 4.735a.983.983 0 0 1-.695.287H.472a.491.491 0 0 1-.347-.838z" transform="translate(43.669 -170.525)" style="fill:url(#a)"/>
    <path data-name="패스 671" d="M4.86.287A1.01 1.01 0 0 1 5.554 0h23.969a.491.491 0 0 1 .347.838l-4.735 4.735a.983.983 0 0 1-.695.287H.472a.491.491 0 0 1-.347-.838z" transform="translate(43.669 45.897)" style="fill:url(#b)"/>
    <path data-name="패스 672" d="M25.135 116.587a.983.983 0 0 0-.695-.287H.472a.491.491 0 0 0-.347.838l4.735 4.735a.983.983 0 0 0 .695.287h23.968a.491.491 0 0 0 .347-.838z" transform="translate(43.669 -61.621)" style="fill:url(#c)"/>
</svg>
