<svg xmlns="http://www.w3.org/2000/svg" width="60" height="60">
    <defs>
        <style>
            .cls-1{fill:#fff}.cls-2{fill:#a6b1b5}.cls-3{fill:#f0f9f9}.cls-4{fill:#1cb1e2}.cls-11{fill:#035476}.cls-13{fill:#728488}
        </style>
    </defs>
    <g id="img_piggycell_80px" transform="translate(-792 -944)">
        <circle id="타원_50" data-name="타원 50" class="cls-1" cx="30" cy="30" r="30" transform="translate(792 944)"/>
        <g id="그룹_233" data-name="그룹 233" transform="translate(808.5 955.251)">
            <g id="그룹_227" data-name="그룹 227" transform="translate(4.119 34.781)">
                <path id="패스_531" data-name="패스 531" class="cls-2" d="M536.455 477.454c0 .482-1.624.608-3.629.608-.306 0-.6 0-.887-.008a3.152 3.152 0 0 1 .089-.559 1.876 1.876 0 0 0-.949.531c-1.123-.061-1.884-.213-1.884-.572 0-.922 1.625-1.667 3.63-1.667s3.63.746 3.63 1.667z" transform="translate(-529.196 -475.787)"/>
            </g>
            <path id="_Path__V002" data-name="&lt;Path&gt;_V002" class="cls-3" d="M536.455 477.454c0 .482-1.624.608-3.629.608-.306 0-.6 0-.887-.008.014-.488.307-1.039-.021-1.039a1.236 1.236 0 0 0-.839 1.011c-1.123-.061-1.884-.213-1.884-.572 0-.922 1.625-1.667 3.63-1.667s3.63.746 3.63 1.667z" transform="translate(-525.077 -441.006)"/>
            <path id="_Path__V002-2" data-name="&lt;Path&gt;_V002" class="cls-1" d="M538.188 481.883c0 .357-1.287.451-2.875.451-.241 0-.3 0-.522-.006.011-.363.331-1.119-.1-1.026a1.462 1.462 0 0 0-.763 1.006c-.888-.044-1.491-.158-1.491-.423 0-.684 1.286-1.238 2.874-1.238s2.877.553 2.877 1.236z" transform="translate(-527.93 -445.278)"/>
            <path id="Outline" class="cls-4" d="M529.588 472.549c2 0 3.629.746 3.629 1.667 0 .482-1.624.608-3.629.608-.306 0-.6 0-.887-.008.014-.488.307-1.039-.021-1.039a1.236 1.236 0 0 0-.839 1.011c-1.123-.061-1.884-.213-1.884-.572 0-.922 1.625-1.667 3.63-1.667m0-.444c-2.323 0-4.074.908-4.074 2.111 0 .821 1.189.955 2.3 1.016l.379.02.055-.257-.008.256.448.009c.287.006.587.008.9.008 3.045 0 4.073-.266 4.073-1.052 0-1.2-1.751-2.111-4.073-2.111z" transform="translate(-521.839 -437.768)"/>
            <g id="그룹_228" data-name="그룹 228" transform="translate(13.397 34.781)">
                <path id="패스_532" data-name="패스 532" class="cls-2" d="M606.112 477.454c0 .482 1.625.608 3.629.608.306 0 .6 0 .887-.008a3.215 3.215 0 0 0-.089-.559 1.873 1.873 0 0 1 .948.531c1.124-.061 1.884-.213 1.884-.572 0-.922-1.625-1.667-3.63-1.667s-3.629.746-3.629 1.667z" transform="translate(-606.112 -475.787)"/>
            </g>
            <path id="_Path__V002-3" data-name="&lt;Path&gt;_V002" class="cls-3" d="M606.112 477.454c0 .482 1.625.608 3.629.608.306 0 .6 0 .887-.008-.014-.488-.307-1.039.021-1.039a1.236 1.236 0 0 1 .838 1.011c1.124-.061 1.884-.213 1.884-.572 0-.922-1.625-1.667-3.63-1.667s-3.629.746-3.629 1.667z" transform="translate(-592.715 -441.006)"/>
            <path id="_Path__V002-4" data-name="&lt;Path&gt;_V002" class="cls-1" d="M615.391 481.883c0 .357 1.286.451 2.874.451.242 0 .3 0 .522-.006-.011-.363-.33-1.119.1-1.026a1.459 1.459 0 0 1 .763 1.006c.889-.044 1.492-.158 1.492-.423 0-.684-1.287-1.238-2.874-1.238s-2.877.553-2.877 1.236z" transform="translate(-600.875 -445.278)"/>
            <path id="Outline-2" data-name="Outline" class="cls-4" d="M606.5 472.549c2 0 3.63.746 3.63 1.667 0 .359-.76.511-1.884.572a1.236 1.236 0 0 0-.838-1.011c-.328 0-.036.551-.021 1.039-.284.006-.581.008-.887.008-2 0-3.629-.126-3.629-.608 0-.922 1.625-1.667 3.629-1.667m0-.444c-2.322 0-4.073.908-4.073 2.111 0 .786 1.028 1.052 4.073 1.052.31 0 .61 0 .9-.008l.448-.009-.008-.254.055.255.378-.02c1.114-.061 2.3-.194 2.3-1.016 0-1.2-1.751-2.111-4.074-2.111z" transform="translate(-589.476 -437.768)"/>
            <path id="패스_533" data-name="패스 533" d="M657.62 222.074a.2.2 0 0 0 .015-.047.143.143 0 0 0-.122-.16.137.137 0 0 0-.1.028l-3.25 2.894-.239-1.524-4.172 3.609.508 1.23 3.128-3.289.294 1.818 3.907-4.512z" transform="translate(-631.087 -217.714)" style="fill:#fcab00"/>
            <g id="그룹_229" data-name="그룹 229" transform="translate(4.64)">
                <path id="패스_534" data-name="패스 534" class="cls-1" d="m545.776 191.354-2.431 5.927-1.6.606 3.79-6.686a.142.142 0 0 1 .264.072.133.133 0 0 1-.01.049z" transform="translate(-540.749 -190.688)"/>
                <path id="패스_535" data-name="패스 535" class="cls-4" d="M538.417 187.894a.142.142 0 0 1 .142.142.133.133 0 0 1-.01.049l-.009.032-2.431 5.927-1.6.606 3.79-6.686a.141.141 0 0 1 .122-.07m0-.444a.588.588 0 0 0-.5.288l-3.794 6.693-.606 1.069 1.15-.434 1.6-.606.181-.068.073-.179 2.431-5.927.01-.023.007-.024v-.017a.572.572 0 0 0 .031-.185.587.587 0 0 0-.586-.586z" transform="translate(-533.513 -187.45)"/>
            </g>
            <g id="그룹_230" data-name="그룹 230" transform="translate(0 4.519)">
                <path id="_Path__test" data-name="&lt;Path&gt;_test" class="cls-1" d="M510.89 257.584c3.454-.032 7.083-.987 9.336-3.85 2.691-3.418 2.8-7.253 2.549-10.463-.4-5.067-1.95-9.437-4.6-12.031a9.766 9.766 0 0 0-7.245-2.647h-.276a9.767 9.767 0 0 0-7.246 2.647c-2.65 2.594-4.2 6.963-4.6 12.031-.254 3.21-.143 7.044 2.549 10.463 2.253 2.863 5.882 3.818 9.336 3.85z" transform="translate(-498.276 -228.15)"/>
                <path id="_Path__test-2" data-name="&lt;Path&gt;_test" class="cls-4" d="M507.7 225.355a9.766 9.766 0 0 1 7.247 2.645c2.649 2.594 4.2 6.963 4.6 12.031.254 3.21.142 7.044-2.549 10.463-2.253 2.863-5.882 3.818-9.336 3.85h-.194c-3.454-.032-7.083-.987-9.336-3.85-2.692-3.418-2.8-7.253-2.549-10.463.4-5.067 1.949-9.436 4.6-12.031a9.767 9.767 0 0 1 7.246-2.647h.276m0-.444h-.278c-3.3.031-5.628.887-7.557 2.773-2.625 2.57-4.305 6.943-4.73 12.313-.248 3.138-.172 7.2 2.642 10.773 2.576 3.272 6.687 3.992 9.681 4.019h.2c3-.028 7.11-.747 9.685-4.019 2.815-3.575 2.891-7.635 2.643-10.772-.425-5.369-2.105-9.742-4.731-12.313-1.928-1.887-4.257-2.742-7.552-2.773z" transform="translate(-495.048 -224.911)"/>
            </g>
            <path id="패스_536" data-name="패스 536" d="M656.245 401.821a.831.831 0 1 1 .346 1.123.832.832 0 0 1-.346-1.123z" transform="translate(-636.715 -375.573)" style="fill:#60c5d9"/>
            <path id="패스_537" data-name="패스 537" d="M658.284 384.3a.7.7 0 1 1 .29.941.7.7 0 0 1-.29-.941z" transform="translate(-638.522 -360.23)" style="fill:#7fced9"/>
            <path id="패스_538" data-name="패스 538" d="M659.514 370.912a.5.5 0 1 1 .21.679.5.5 0 0 1-.21-.679z" transform="translate(-639.624 -348.547)" style="fill:#a6dce7"/>
            <path id="패스_539" data-name="패스 539" d="M526.727 233.815a9.531 9.531 0 0 1 9.66 7.487 2.7 2.7 0 0 1-.572 2.7c-1.413 1.338-3.318 1.5-4.672 1.675a34.338 34.338 0 0 1-4.381.3h-.312a34.349 34.349 0 0 1-4.38-.3c-1.354-.173-3.259-.338-4.671-1.675a2.7 2.7 0 0 1-.572-2.7 9.531 9.531 0 0 1 9.66-7.487z" transform="translate(-514.09 -228.222)" style="fill:#22b7e5"/>
            <path id="패스_540" data-name="패스 540" d="M550.922 242.634c.175.376-.457 1.042-1.41 1.487s-1.871.5-2.046.125.456-1.042 1.41-1.487 1.87-.502 2.046-.125z" transform="translate(-541.116 -235.758)" style="fill:#76cce9"/>
            <path id="패스_541" data-name="패스 541" class="cls-11" d="M537.724 289.064v2.043h-1.377c0 1.13.615 2.047 1.374 2.047s1.373-.916 1.373-2.047-.613-2.04-1.37-2.043z" transform="translate(-531.365 -276.807)"/>
            <path id="패스_542" data-name="패스 542" class="cls-11" d="M639.865 289.064v2.043h-1.377c0 1.13.615 2.047 1.374 2.047s1.374-.916 1.374-2.047-.613-2.04-1.371-2.043z" transform="translate(-621.185 -276.807)"/>
            <g id="그룹_231" data-name="그룹 231" transform="translate(8.413 13.957)">
                <path id="패스_543" data-name="패스 543" d="M569.062 308.306a7.423 7.423 0 0 0 3.371-.629 1.62 1.62 0 0 0 .426-1.945 3.952 3.952 0 0 0-3.822-2.573h-.284a3.951 3.951 0 0 0-3.821 2.573 1.62 1.62 0 0 0 .426 1.945 7.423 7.423 0 0 0 3.371.629z" transform="translate(-564.792 -303.159)" style="fill:#d7e1e3"/>
            </g>
            <g id="그룹_232" data-name="그룹 232" transform="translate(9.848 15.844)">
                <path id="패스_544" data-name="패스 544" class="cls-13" d="M578.681 319.8a1 1 0 1 1-1-1 1 1 0 0 1 1 1z" transform="translate(-576.685 -318.802)"/>
                <path id="패스_545" data-name="패스 545" class="cls-13" d="M604.386 319.8a1 1 0 1 0 1-1 1 1 0 0 0-1 1z" transform="translate(-601.045 -318.802)"/>
            </g>
        </g>
    </g>
</svg>
